<svg width="36" height="24" viewBox="0 0 36 24" fill="none" xmlns="http://www.w3.org/2000/svg">
<path fill-rule="evenodd" clip-rule="evenodd" d="M25 4C29.4183 4 33 7.58172 33 12C33 16.4183 29.4183 20 25 20H11C6.58172 20 3 16.4183 3 12C3 7.58172 6.58172 4 11 4H25ZM11 6C7.68629 6 5 8.68629 5 12C5 15.3137 7.68629 18 11 18H25C28.3137 18 31 15.3137 31 12C31 8.68629 28.3137 6 25 6H11Z" fill="white"/>
<path d="M15 12C15 14.2091 13.2091 16 11 16C8.79086 16 7 14.2091 7 12C7 9.79086 8.79086 8 11 8C13.2091 8 15 9.79086 15 12Z" fill="white"/>
</svg>
