<svg width="430" height="323" viewBox="0 0 430 323" fill="none" xmlns="http://www.w3.org/2000/svg">
<path d="M130.044 173.496C131.412 172.128 132.628 171.672 134.224 171.672C138.556 171.672 140.304 174.636 140.304 177.828C140.304 179.804 139.696 181.552 138.024 183.072C133.084 187.48 127.308 189.836 120.696 189.836C102.304 189.836 93.1836 174.56 93.1836 159.208C93.1836 143.704 102.532 128.048 121.076 128.048C127.536 128.048 133.388 130.1 138.404 134.66C139.924 136.104 140.76 137.852 140.76 139.828C140.76 143.704 138.1 146.136 134.756 146.136C133.236 146.136 131.184 145.452 130.12 144.312C127.764 141.956 124.344 140.74 120.848 140.74C110.816 140.74 105.952 149.708 105.952 158.752C105.952 168.024 111.044 176.764 120.924 176.764C124.42 176.764 127.612 175.928 130.044 173.496ZM156.105 146.82C159.449 145.452 163.097 144.768 166.593 144.768C176.245 144.768 185.821 149.328 185.821 160.956V183.68C185.821 186.72 183.617 189.532 179.893 189.532C178.601 189.532 175.333 188.544 175.105 185.428V183.984C171.533 187.784 166.973 189.532 162.717 189.532C154.053 189.532 149.113 183.528 149.113 177.22C149.113 170.38 154.813 163.236 164.541 163.236C168.645 163.236 172.673 164.376 175.409 166.352V162.628C175.409 158.144 170.393 155.408 166.137 155.408C163.021 155.408 160.513 156.396 157.777 156.396C154.889 156.396 152.153 155.484 152.153 151.608C152.153 149.48 153.673 147.808 156.105 146.82ZM161.045 175.7C161.045 178.132 163.933 179.348 166.745 179.348C170.165 179.348 173.813 177.98 173.813 175.32C173.813 173.344 170.469 172.204 167.429 172.204C164.237 172.204 161.045 173.268 161.045 175.7ZM211.628 179.576C213.756 179.576 215.352 178.816 215.352 176.84C215.352 170.76 194.148 170.456 194.148 157.308C194.148 147.96 201.976 143.78 210.944 143.78C214.896 143.78 219.152 144.388 223.104 146.44C225.156 147.58 226.144 149.48 226.144 151.304C226.144 153.812 224.32 156.396 220.9 156.396C216.948 156.396 213.908 153.888 209.424 153.888C207.448 153.888 205.928 154.572 205.928 156.624C205.928 161.868 227.588 163.236 227.588 175.776C227.588 185.808 218.62 189.684 210.336 189.684C204.56 189.684 200.076 187.86 195.82 185.276C194.224 184.136 193.464 182.236 193.464 180.412C193.464 176.992 196.2 175.396 198.936 175.396C203.496 175.396 205.7 179.576 211.628 179.576ZM233.52 183.072V151.228C233.52 147.276 235.572 145.376 239.372 145.376C243.248 145.376 245.376 147.276 245.376 151.228V183.072C245.376 187.1 243.4 189 239.448 189C235.572 189 233.52 187.1 233.52 183.072ZM232.456 134.052C232.456 130.252 235.496 127.288 239.22 127.288C243.096 127.288 246.06 130.252 246.06 134.052C246.06 137.852 243.096 140.816 239.22 140.816C235.496 140.816 232.456 137.852 232.456 134.052ZM253.494 183.148V151.076C253.494 147.884 255.394 144.996 259.194 144.996C263.222 144.996 265.122 147.884 265.122 150.24C267.782 147.2 271.126 144.768 275.686 144.768C281.538 144.768 288.53 148.644 288.53 159.816V183.148C288.53 187.024 286.554 189 282.602 189C278.802 189 276.75 187.024 276.75 183.148V161.944C276.75 157.384 273.862 155.18 271.126 155.18C268.086 155.18 265.122 157.46 265.122 161.944V183.148C265.122 187.024 263.222 189 259.194 189C255.394 189 253.494 187.024 253.494 183.148ZM314.633 144.312C327.553 144.312 334.393 155.332 334.393 167.036C334.393 179.044 327.477 189.684 314.633 189.684C301.637 189.684 294.873 178.436 294.873 166.58C294.873 154.8 301.637 144.312 314.633 144.312ZM314.633 155.104C309.237 155.104 306.881 160.728 306.881 166.2C306.881 171.52 309.237 179.044 314.633 179.044C320.029 179.044 322.385 172.888 322.385 167.492C322.385 162.172 320.029 155.104 314.633 155.104Z" fill="white"/>
</svg>
