<svg width="200" height="26" viewBox="0 0 200 26" fill="none" xmlns="http://www.w3.org/2000/svg">
<g clip-path="url(#clip0_209_689)">
<g clip-path="url(#clip1_209_689)">
<path d="M31.34 6.76001L32.9 8.68001H29.78L29.06 11.56H27.14L27.86 8.68001H25.94L24.5 14.44H28.34L27.86 16.36H31.22L28.7 19.24H31.52L33.86 16.36H39.14L41.48 19.24H44.3L41.78 16.36H45.14L44.66 14.44H48.5L47.06 8.68001H45.14L45.86 11.56H43.94L43.22 8.68001H40.1L41.66 6.76001H39.62L37.94 8.68001H35.06L33.38 6.76001H31.34ZM31.58 10.6H33.5V12.52H31.58V10.6ZM39.505 10.6H41.425V12.52H39.505V10.6Z" fill="white"/>
</g>
<path d="M56.746 19.196V6.7525C56.746 5.584 57.443 5.051 58.7755 5.051H62.855C66.299 5.051 68.2055 7.388 68.2055 9.8275C68.2055 11.3855 67.447 12.964 65.7865 14.03L67.775 18.376C67.9185 18.7245 68.0415 19.0935 68.0415 19.442C68.0415 20.3645 67.5495 21.0205 66.4835 21.0205C65.9095 21.0205 65.356 20.836 64.987 20.1185L62.404 14.8705H60.026V19.196C60.026 20.4055 59.493 21 58.4065 21C57.2995 21 56.746 20.4055 56.746 19.196ZM62.9985 8.331H60.026V11.611H62.9985C64.1465 11.611 64.8435 10.6885 64.8435 9.8275C64.8435 9.069 64.29 8.331 62.9985 8.331ZM69.8479 19.196V6.855C69.8479 5.666 70.4424 5.0715 71.5699 5.0715H77.3509C78.4579 5.0715 78.9909 5.584 78.9909 6.7115C78.9909 7.798 78.4579 8.3515 77.3509 8.3515H73.1279V11.119H76.4284C77.5354 11.119 78.0684 11.6725 78.0684 12.7795C78.0684 13.8455 77.5354 14.399 76.4284 14.399H73.1279V17.72H77.4944C78.6834 17.72 79.2574 18.253 79.2574 19.36C79.2574 20.4465 78.6834 21 77.4944 21H71.5699C70.0529 21 69.8479 20.631 69.8479 19.196ZM83.7951 19.2575V8.331H81.9296C80.8021 8.331 80.2281 7.7775 80.2281 6.7115C80.2281 5.584 80.8021 5.051 81.9296 5.051H88.9611C90.0476 5.051 90.6216 5.584 90.6216 6.7115C90.6216 7.7775 90.0476 8.331 88.9611 8.331H87.0751V19.2575C87.0751 20.426 86.5421 21 85.4761 21C84.3486 21 83.7951 20.426 83.7951 19.2575ZM91.4286 19.196V6.7525C91.4286 5.584 92.1256 5.051 93.4581 5.051H97.5376C100.982 5.051 102.888 7.388 102.888 9.8275C102.888 11.3855 102.13 12.964 100.469 14.03L102.458 18.376C102.601 18.7245 102.724 19.0935 102.724 19.442C102.724 20.3645 102.232 21.0205 101.166 21.0205C100.592 21.0205 100.039 20.836 99.6696 20.1185L97.0866 14.8705H94.7086V19.196C94.7086 20.4055 94.1756 21 93.0891 21C91.9821 21 91.4286 20.4055 91.4286 19.196ZM97.6811 8.331H94.7086V11.611H97.6811C98.8291 11.611 99.5261 10.6885 99.5261 9.8275C99.5261 9.069 98.9726 8.331 97.6811 8.331ZM111.665 4.6C116.38 4.6 118.737 8.782 118.737 12.923C118.737 17.064 116.38 21.1845 111.665 21.1845C107.032 21.1845 104.695 17.023 104.695 12.8615C104.695 8.741 107.011 4.6 111.665 4.6ZM111.665 7.921C109.225 7.921 108.057 10.34 108.057 12.8205C108.057 15.383 109.266 17.925 111.706 17.925C114.186 17.925 115.375 15.4855 115.375 12.964C115.375 10.422 114.166 7.921 111.665 7.921ZM125.754 10.7295L124.278 14.7885H127.189C126.635 13.169 126.492 12.9025 125.754 10.7295ZM129.136 19.9545L128.419 18.1095H123.191C122.986 18.6425 122.822 19.155 122.638 19.647C122.33 20.549 121.736 21 120.895 21C119.788 21 119.337 20.221 119.337 19.3805C119.337 19.155 119.399 18.909 119.46 18.704L123.765 6.527C124.114 5.5635 124.811 5.0715 125.754 5.0715C126.697 5.0715 127.394 5.5635 127.742 6.527C132.273 18.909 132.314 19.196 132.314 19.401C132.314 20.3235 131.74 21 130.715 21C129.936 21 129.403 20.631 129.136 19.9545ZM133.579 19.196V6.7525C133.579 5.584 134.276 5.051 135.608 5.051H139.688C143.132 5.051 145.038 7.388 145.038 9.8275C145.038 11.3855 144.28 12.964 142.619 14.03L144.608 18.376C144.751 18.7245 144.874 19.0935 144.874 19.442C144.874 20.3645 144.382 21.0205 143.316 21.0205C142.742 21.0205 142.189 20.836 141.82 20.1185L139.237 14.8705H136.859V19.196C136.859 20.4055 136.326 21 135.239 21C134.132 21 133.579 20.4055 133.579 19.196ZM139.831 8.331H136.859V11.611H139.831C140.979 11.611 141.676 10.6885 141.676 9.8275C141.676 9.069 141.123 8.331 139.831 8.331ZM156.725 16.818C157.094 16.449 157.422 16.326 157.853 16.326C159.021 16.326 159.493 17.1255 159.493 17.9865C159.493 18.5195 159.329 18.991 158.878 19.401C157.545 20.59 155.987 21.2255 154.204 21.2255C149.243 21.2255 146.783 17.105 146.783 12.964C146.783 8.782 149.304 4.559 154.306 4.559C156.049 4.559 157.627 5.1125 158.98 6.3425C159.39 6.732 159.616 7.2035 159.616 7.7365C159.616 8.782 158.898 9.438 157.996 9.438C157.586 9.438 157.033 9.2535 156.746 8.946C156.11 8.3105 155.188 7.9825 154.245 7.9825C151.539 7.9825 150.227 10.4015 150.227 12.841C150.227 15.342 151.6 17.6995 154.265 17.6995C155.208 17.6995 156.069 17.474 156.725 16.818ZM161.808 19.36V6.691C161.808 5.5635 162.341 5.0305 163.407 5.0305C164.534 5.0305 165.067 5.5635 165.067 6.691V11.2625H171.012V6.691C171.012 5.5635 171.545 5.0305 172.652 5.0305C173.739 5.0305 174.313 5.5635 174.313 6.691V19.36C174.313 20.4465 173.739 21 172.652 21C171.545 21 171.012 20.4465 171.012 19.36V14.563H165.067V19.36C165.067 20.4465 164.514 21 163.427 21C162.32 21 161.808 20.4465 161.808 19.36Z" fill="white"/>
</g>
<defs>
<clipPath id="clip0_209_689">
<rect width="200" height="26" fill="white"/>
</clipPath>
<clipPath id="clip1_209_689">
<rect width="24" height="24" fill="white" transform="translate(24.5 1)"/>
</clipPath>
</defs>
</svg>
