<svg width="480" height="160" viewBox="0 0 480 160" fill="none" xmlns="http://www.w3.org/2000/svg">
<g clip-path="url(#clip0_30_242)">
<path d="M413.487 47.5095H429.989L406.724 83.779L402.951 112.077H388.037L392.408 79.7891L377.494 47.5095H393.601L401.557 65.8458L413.487 47.5095Z" fill="white"/>
<path d="M239.702 86.5686H259.381L261.371 72.2209H241.887L243.281 61.8565H265.943L268.134 47.5095H230.553L221.605 112.077H258.985L260.976 97.7223H238.308L239.702 86.5686Z" fill="white"/>
<path d="M125.168 80.1867L130.138 66.8372L131.73 80.1867H125.168ZM119.799 92.9404H133.319L135.708 112.071H160.164L171.498 76.9988L177.067 112.071H189.992L204.308 75.0065L206.695 112.071H221.011L217.034 47.5068H199.933L186.608 81.5805L181.437 47.5068H166.127L148.63 100.513L142.067 47.5068H122.978L101.701 101.109L104.486 80.1861H78.6329L76.842 92.9398H88.1774L87.3811 97.3233C85.3925 98.5176 80.82 98.7178 79.0304 98.7178C77.2408 98.7178 63.9193 97.5228 64.5152 83.1745C65.1064 68.8281 84.1954 55.4773 106.863 62.8499L109.052 49.1001C93.939 43.9199 54.2475 46.819 50.193 82.3785C47.8076 103.302 66.8966 113.266 79.6215 113.067C86.979 113.466 95.3311 110.676 98.3131 109.081L97.3198 112.071H112.432L119.79 92.9404H119.799Z" fill="white"/>
<path d="M361.388 46.9124C351.047 46.5134 336.134 52.4916 331.163 76.6045C326.192 100.715 339.514 110.479 351.842 112.073C364.172 113.667 381.471 105.896 384.652 82.7809C387.836 59.6648 376.496 47.5109 361.388 46.9124ZM359.799 60.6622C363.974 60.6622 372.922 63.4525 370.734 80.1895C368.548 96.9284 358.208 98.9214 354.429 98.5224C350.651 98.1234 342.896 95.5346 345.084 80.1895C347.275 64.847 355.426 60.4627 359.803 60.6622H359.799Z" fill="white"/>
<path d="M298.551 72.221H306.903C313.067 72.221 314.261 68.2351 314.458 66.6425C314.657 65.0472 312.868 61.8586 309.687 61.8586H299.944L298.556 72.221H298.551ZM294.972 97.7264H306.307C312.47 97.7264 313.862 92.9446 314.059 91.3499C314.26 89.756 312.47 86.5687 309.289 86.5687H296.564L294.975 97.7264H294.972ZM278.276 112.075L287.224 47.5116H314.663C321.227 47.5116 330.77 55.0844 329.577 65.2467C328.385 75.4096 325.203 76.0075 323.015 77.6014C326.396 80.5885 329.776 85.3717 328.385 94.339C326.992 103.308 319.635 112.074 306.71 112.074L278.278 112.075H278.276Z" fill="white"/>
</g>
<defs>
<clipPath id="clip0_30_242">
<rect width="380" height="66.2121" fill="white" transform="translate(50 46.894)"/>
</clipPath>
</defs>
</svg>
