<svg width="480" height="160" viewBox="0 0 480 160" fill="none" xmlns="http://www.w3.org/2000/svg">
<g clip-path="url(#clip0_30_240)">
<path d="M284.919 89.6726V65.3721H268.704V56.3767H294.03V91.0298L294.463 91.1164C295.07 89.3838 295.705 87.6511 296.297 85.904C301.168 71.5519 306.033 57.1997 310.894 42.8476C311.855 39.9623 313.701 37.4537 316.171 35.6796C318.64 33.9055 321.607 32.9564 324.648 32.9676C327.689 32.9788 330.648 33.9498 333.105 35.742C335.561 37.5343 337.389 40.0564 338.328 42.9486C344.364 60.872 350.409 78.7857 356.463 96.6898C356.68 97.3396 356.868 97.9893 357.099 98.769H320.814V89.8747H344.638C343.642 86.987 342.746 84.2292 341.822 81.5147L329.391 44.8257C329.228 44.1493 328.924 43.5151 328.498 42.9651C328.072 42.4152 327.534 41.9621 326.92 41.6358C326.305 41.3095 325.629 41.1175 324.934 41.0725C324.24 41.0275 323.544 41.1306 322.893 41.3748C322.086 41.698 321.368 42.2103 320.801 42.8686C320.233 43.527 319.831 44.312 319.63 45.1578L307.415 81.3703C305.451 87.1458 303.473 92.9213 301.48 98.8268H265.282C254.453 98.8268 246.729 91.7806 246.396 80.966C246.093 70.8588 246.165 60.8672 246.469 50.8322C246.66 46.4196 248.514 42.2429 251.659 39.1413C254.803 36.0396 259.005 34.2429 263.42 34.1121C273.354 33.8955 283.288 34.1121 293.221 34.1121C293.474 34.1297 293.726 34.1683 293.972 34.2276V43.1364H265.282C259.232 43.1364 255.45 46.9193 255.45 52.9692V80.4029C255.392 81.6626 255.598 82.9206 256.053 84.0965C256.509 85.2724 257.204 86.3406 258.095 87.233C258.986 88.1254 260.053 88.8224 261.229 89.2797C262.404 89.737 263.662 89.9446 264.921 89.8891H283.287C283.793 89.7736 284.298 89.7159 284.919 89.6726Z" fill="white"/>
<path d="M140.531 87.7231V78.6844H167.387C167.84 78.7799 168.307 78.7799 168.759 78.6844C169.219 78.3628 169.632 77.9789 169.986 77.5437C169.568 77.2405 169.163 76.6919 168.73 76.6774C166.362 76.5908 163.994 76.6774 161.626 76.6774C156.777 76.6813 152.072 75.0245 148.295 71.9825C144.519 68.9406 141.897 64.6971 140.868 59.9582C139.838 55.2192 140.463 50.2706 142.637 45.9359C144.811 41.6012 148.405 38.1418 152.819 36.1333C155.34 34.996 158.055 34.3492 160.818 34.2274C170.333 33.9964 179.862 34.1408 189.392 34.1408C189.658 34.155 189.923 34.1839 190.186 34.2274V43.165C189.522 43.165 188.843 43.2805 188.179 43.2805C179.357 43.2805 170.521 43.2805 161.684 43.2805C158.727 43.2704 155.869 44.3433 153.65 46.2965C151.43 48.2497 150.002 50.9481 149.636 53.882C149.27 56.816 149.991 59.7824 151.663 62.2212C153.334 64.6599 155.841 66.4022 158.71 67.1189C161.445 67.4984 164.208 67.6529 166.969 67.581C168.58 67.5637 170.189 67.6942 171.777 67.9708C174.091 68.6421 176.089 70.1178 177.411 72.1321C178.733 74.1464 179.292 76.5667 178.987 78.9566C178.682 81.3466 177.533 83.5491 175.748 85.1671C173.963 86.785 171.658 87.7119 169.25 87.7808C163.07 87.8964 156.89 87.7808 150.711 87.7808L140.531 87.7231Z" fill="white"/>
<path d="M140.531 98.8268V89.6726H142.654C151.49 89.6726 160.327 89.6726 169.163 89.6726C172.166 89.6703 175.06 88.5489 177.28 86.5275C179.5 84.5061 180.888 81.7297 181.171 78.7404C181.454 75.7512 180.613 72.7637 178.812 70.3612C177.011 67.9587 174.379 66.3138 171.43 65.7476C168.331 65.4483 165.214 65.3663 162.103 65.5021C160.449 65.5698 158.805 65.2252 157.318 64.4993C155.831 63.7734 154.548 62.689 153.584 61.3437C152.461 59.8925 151.77 58.1548 151.589 56.3291C151.407 54.5034 151.744 52.6636 152.559 51.02C153.26 49.3017 154.46 47.833 156.005 46.8035C157.549 45.774 159.366 45.231 161.222 45.2445C170.737 45.0857 180.267 45.2445 189.796 45.2445C189.947 45.279 190.092 45.3323 190.229 45.4033V54.2832H163.056C162.54 54.2189 162.018 54.2433 161.511 54.3554C161.298 54.4588 161.109 54.6063 160.957 54.7879C160.806 54.9696 160.694 55.1814 160.63 55.4094C160.63 55.6404 161.121 56.218 161.453 56.2757C162.309 56.3961 163.173 56.4444 164.038 56.4201C168.066 56.4201 172.094 56.1602 176.036 57.5319C180.596 59.1264 184.477 62.2255 187.041 66.3194C189.605 70.4133 190.699 75.258 190.143 80.0564C188.612 90.7411 180.411 98.5669 170.059 98.8268C160.255 99.0001 150.436 98.8268 140.531 98.8268Z" fill="white"/>
<path d="M242.946 34.0397V43.0783H213.317C207.238 43.0783 203.47 46.8324 203.47 52.8823V80.2438C203.396 81.5183 203.593 82.794 204.049 83.9866C204.504 85.1792 205.208 86.2616 206.112 87.1623C207.017 88.063 208.103 88.7615 209.297 89.2116C210.492 89.6616 211.769 89.8532 213.043 89.7734H242.787V98.8121H212.725C210.323 98.8549 207.938 98.4144 205.71 97.5167C203.481 96.6191 201.457 95.2826 199.755 93.5868C198.054 91.8909 196.711 89.8703 195.807 87.6451C194.902 85.4199 194.454 83.0355 194.489 80.6336C194.489 71.1618 194.489 61.6948 194.489 52.2325C194.452 49.8295 194.898 47.4435 195.802 45.2166C196.706 42.9897 198.049 40.9674 199.75 39.27C201.452 37.5726 203.477 36.2348 205.706 35.3363C207.935 34.4377 210.322 33.9968 212.725 34.0397H243.047H242.946Z" fill="white"/>
<path d="M341.692 87.6365H320.713V81.1968L320.352 81.1101C319.976 82.1642 319.587 83.2038 319.226 84.2578C317.782 88.676 316.208 93.0943 314.764 97.527C314.734 97.7329 314.664 97.9308 314.556 98.1089C314.449 98.2871 314.307 98.4419 314.139 98.5644C313.97 98.6868 313.779 98.7743 313.577 98.8218C313.374 98.8693 313.164 98.8759 312.959 98.841C309.913 98.7688 306.866 98.841 303.646 98.841C305.538 93.2532 307.357 87.8531 309.191 82.4674C313.339 70.1752 317.493 57.8877 321.651 45.6051C321.778 44.9217 322.132 44.3012 322.657 43.845C323.181 43.3887 323.845 43.1236 324.539 43.0928C325.273 43.0777 325.986 43.3303 326.547 43.8033C327.108 44.2763 327.477 44.9374 327.586 45.6629C327.586 45.8217 327.716 45.9806 327.773 46.1394L336.133 71.0607C337.808 76.0373 339.478 81.0091 341.144 85.976C341.36 86.4958 341.505 87.0445 341.692 87.6365ZM324.626 68.3318L321.521 77.6304H327.716C326.705 74.6127 325.752 71.7394 324.626 68.3318Z" fill="white"/>
<path d="M273.816 78.6846V76.591H268.719V67.4368H282.869V87.6511C282.363 87.6511 281.916 87.7522 281.425 87.7522C275.938 87.7522 270.451 87.7522 264.965 87.7522C260.344 87.7522 257.485 84.8644 257.471 80.3162C257.471 71.0754 257.471 61.8346 257.471 52.5937C257.471 47.9878 260.359 45.2155 264.979 45.2155H293.857V54.2975H269.715C267.044 54.2975 266.553 54.774 266.539 57.4019V75.5803C266.539 77.9482 267.275 78.6846 269.628 78.7135C270.957 78.6991 272.271 78.6846 273.816 78.6846Z" fill="white"/>
<path d="M242.946 45.3888V54.2686H240.852C233.012 54.2686 225.157 54.2686 217.317 54.2686C215.988 54.2686 214.92 54.4996 214.617 56.2756H216.566C222.688 56.2756 228.795 56.2756 234.918 56.2756C236.231 56.2756 236.621 56.6655 236.578 57.9505C236.491 60.3474 236.578 62.7586 236.578 65.271H205.578V55.7703C205.578 54.4419 205.578 53.1135 205.578 51.7852C205.626 50.0928 206.31 48.4806 207.492 47.2688C208.674 46.057 210.269 45.3343 211.96 45.2444C222.067 45.2444 232.275 45.2444 242.426 45.2444C242.604 45.2714 242.779 45.3199 242.946 45.3888Z" fill="white"/>
<path d="M205.578 67.5665H236.405V76.5041H214.747L214.429 76.9806C214.903 77.5406 215.458 78.0272 216.075 78.4244C216.728 78.6495 217.423 78.7284 218.111 78.6554H242.758V87.6364H213.303C208.22 87.6364 205.52 84.9219 205.52 79.825L205.578 67.5665Z" fill="white"/>
<path d="M144.776 110.565H153.988C153.988 112.876 153.988 115.099 153.988 117.323C153.988 120.427 154.522 120.976 157.583 120.976H171.257C171.943 121.042 172.635 120.927 173.264 120.644C173.841 120.268 174.52 119.445 174.448 118.897C174.308 118.561 174.084 118.267 173.799 118.042C173.513 117.818 173.175 117.669 172.816 117.612C169.77 117.482 166.709 117.611 163.648 117.539H161.612V112.832C162.189 112.832 162.796 112.76 163.402 112.76H177.076C181.595 112.76 183.992 114.911 184.122 119.027C184.216 119.95 184.113 120.883 183.82 121.764C183.526 122.645 183.049 123.453 182.42 124.136C181.791 124.818 181.024 125.359 180.169 125.723C179.315 126.087 178.394 126.265 177.466 126.246C174.578 126.405 171.806 126.318 168.99 126.318C163.619 126.318 158.248 126.318 152.891 126.318C151.568 126.312 150.25 126.152 148.963 125.842C147.806 125.639 146.755 125.037 145.996 124.14C145.236 123.243 144.814 122.108 144.805 120.932C144.69 117.525 144.776 114.132 144.776 110.565Z" fill="white"/>
<path d="M396.488 110.277C399.563 110.277 402.263 110.277 404.978 110.277C405.266 110.277 405.728 110.45 405.815 110.681C406.537 112.284 407.952 112.24 409.353 112.24L425.625 112.327H427.618V117.15H408.746C408.177 117.053 407.593 117.093 407.042 117.265C406.465 117.612 405.757 118.276 405.728 118.839C405.7 119.402 406.436 120.023 406.985 120.283C407.576 120.514 408.216 120.598 408.847 120.528C415.258 120.528 421.654 120.615 428.065 120.528C429.509 120.528 430.101 120.846 429.986 122.449C429.74 125.986 429.812 126.001 426.275 126.015C419.055 126.015 411.735 126.015 404.458 126.015C403.402 126.079 402.344 125.92 401.354 125.548C400.364 125.176 399.463 124.599 398.711 123.855C397.959 123.111 397.372 122.216 396.989 121.23C396.606 120.244 396.435 119.188 396.488 118.131C396.473 115.691 396.488 113.107 396.488 110.277Z" fill="white"/>
<path d="M115.884 117.481C115.509 119.994 116.101 120.745 118.44 120.774C124.793 120.875 131.146 120.932 137.485 121.005H139.665V126.073C139.203 126.073 138.697 126.159 138.221 126.159C130.135 126.159 122.05 126.058 113.978 125.957C108.708 125.957 106.383 123.502 106.398 118.276V110.32C109.286 110.32 112.029 110.32 114.729 110.32C114.908 110.354 115.077 110.429 115.222 110.539C115.367 110.65 115.485 110.792 115.567 110.955C116 112.5 117.14 112.774 118.454 112.774H136.82C137.153 112.774 137.499 112.774 137.99 112.861V117.453L115.884 117.481Z" fill="white"/>
<path d="M371.552 119.315C372.606 117.871 373.414 116.817 374.209 115.72C375.479 113.93 376.374 111.388 378.093 110.551C379.811 109.714 382.424 110.306 384.547 110.291H388.142C387.738 111.027 387.536 111.461 387.276 111.865C384.244 116.283 381.255 120.73 378.136 125.091C377.864 125.423 377.529 125.698 377.149 125.899C376.77 126.1 376.354 126.223 375.927 126.26C372.938 126.39 369.935 126.361 366.931 126.26C366.579 126.268 366.23 126.202 365.904 126.068C365.579 125.934 365.284 125.734 365.04 125.481C361.878 120.6 358.831 115.648 355.481 110.32C357.159 110.452 358.843 110.452 360.521 110.32C364.275 109.685 366.7 111.114 368.303 114.507C369.275 116.182 370.36 117.789 371.552 119.315Z" fill="white"/>
<path d="M226.529 126.188H217.057L216.84 121.654H200.106V115.142H216.956V110.479H226.529V126.188Z" fill="white"/>
<path d="M305.538 115.114H318.128C321.507 115.114 322.012 114.623 322.214 111.273C322.238 111.016 322.277 110.76 322.33 110.508H332.192C332.697 114.305 331.845 117.38 328.394 119.59L334.834 125.813L334.545 126.333C334.011 126.333 333.462 126.419 332.928 126.419C331.774 126.347 330.617 126.347 329.463 126.419C325.131 126.982 321.593 125.87 319.009 122.088C318.753 121.84 318.45 121.647 318.117 121.521C317.785 121.394 317.43 121.336 317.074 121.351C313.262 121.351 309.465 121.351 305.523 121.351L305.538 115.114Z" fill="white"/>
<path d="M50.0577 108.486C50.0577 107.042 50.0577 105.671 50.0577 104.313C50.0577 103.981 50.6209 103.606 51.0107 103.418C51.3485 103.345 51.6981 103.345 52.0359 103.418C65.3677 103.418 78.6947 103.418 92.0169 103.418C93.5718 103.391 95.1265 103.487 96.6661 103.707C97.8154 103.859 98.8685 104.429 99.6247 105.308C100.381 106.186 100.787 107.313 100.767 108.472L50.0577 108.486Z" fill="white"/>
<path d="M287.374 110.45C287.526 114.068 287.497 117.692 287.287 121.308C287.149 122.688 286.507 123.969 285.484 124.907C284.462 125.844 283.13 126.372 281.743 126.39C274.379 126.52 267.001 126.39 259.492 126.39V120.961H263.16C267.188 120.961 271.231 120.961 275.26 120.961C277.729 120.961 278.494 120.196 278.537 117.77C278.58 115.344 278.537 112.962 278.537 110.45H287.374Z" fill="white"/>
<path d="M286.998 108.76H248.909V103.49H278.032C279.418 103.476 280.803 103.563 282.176 103.75C283.404 103.974 284.53 104.578 285.395 105.477C286.261 106.376 286.822 107.525 286.998 108.76Z" fill="white"/>
<path d="M145.339 108.746C145.379 107.517 145.851 106.342 146.672 105.428C147.494 104.514 148.612 103.92 149.83 103.75C151.138 103.548 152.462 103.461 153.786 103.49C162.854 103.49 171.907 103.562 180.974 103.606C181.395 103.626 181.814 103.669 182.23 103.736V108.746H145.339Z" fill="white"/>
<path d="M331.629 108.717H294.478C294.73 107.391 295.405 106.182 296.402 105.271C297.399 104.36 298.664 103.796 300.008 103.664C301.841 103.476 303.704 103.505 305.552 103.49C311.948 103.49 318.359 103.49 324.756 103.49C326.335 103.406 327.893 103.884 329.152 104.842C330.411 105.799 331.289 107.173 331.629 108.717Z" fill="white"/>
<path d="M189.363 108.76C189.423 107.353 190.034 106.026 191.062 105.065C192.091 104.104 193.457 103.585 194.864 103.62C199.586 103.476 204.307 103.49 209.043 103.476C212.667 103.476 216.263 103.476 219.93 103.606C221.357 103.68 222.719 104.227 223.801 105.16C224.883 106.093 225.625 107.36 225.908 108.76H189.363Z" fill="white"/>
<path d="M396.589 108.356V103.548H429.639V108.356H396.589Z" fill="white"/>
<path d="M106.6 108.587C106.109 103.49 106.109 103.519 110.932 103.534C119.812 103.534 128.691 103.534 137.571 103.534H139.766V108.515L106.6 108.587Z" fill="white"/>
<path d="M293.698 126.116C293.698 121.004 293.698 116.124 293.698 111.229C293.777 111.018 293.908 110.83 294.08 110.683C294.252 110.537 294.458 110.437 294.68 110.392C297.567 110.32 300.455 110.392 303.343 110.392V126.116H293.698Z" fill="white"/>
<path d="M337.808 126.145V110.334H347.237V126.145H337.808Z" fill="white"/>
<path d="M198.286 126.13C195.399 126.13 192.785 126.13 190.143 126.13C189.767 126.13 189.089 125.654 189.074 125.394C189.074 120.456 189.074 115.503 189.074 110.522H198.286V126.13Z" fill="white"/>
<path d="M70.7774 110.291H79.7583V125.683H70.7774V110.291Z" fill="white"/>
<path d="M100.781 110.45V125.813H92.1179V110.45H100.781Z" fill="white"/>
<path d="M257.586 126.173H248.923V110.551H257.586V126.173Z" fill="white"/>
<path d="M58.6055 125.683H49.9423C49.9423 120.73 49.9423 116.023 49.9423 111.244C49.9971 111.027 50.1071 110.828 50.2613 110.666C50.4156 110.504 50.6091 110.385 50.823 110.32C53.3498 110.248 55.8766 110.32 58.5045 110.32L58.6055 125.683Z" fill="white"/>
<path d="M379.219 108.241C380.157 106.797 381.081 105.353 382.107 103.909C382.222 103.755 382.367 103.627 382.534 103.53C382.7 103.433 382.883 103.371 383.074 103.346C386.207 103.346 389.355 103.346 393.008 103.346C391.665 105.281 390.626 106.826 389.543 108.342C389.434 108.468 389.302 108.571 389.153 108.645C389.004 108.72 388.842 108.764 388.676 108.775C385.572 108.775 382.482 108.775 379.378 108.775L379.219 108.241Z" fill="white"/>
<path d="M351.15 103.418C354.312 103.418 357.012 103.418 359.712 103.418C359.959 103.424 360.201 103.481 360.425 103.586C360.649 103.69 360.848 103.84 361.011 104.025C362.037 105.469 362.961 106.912 364.073 108.674C360.882 108.674 357.979 108.674 355.077 108.674C354.912 108.653 354.752 108.598 354.608 108.514C354.465 108.429 354.339 108.317 354.24 108.183C353.258 106.739 352.319 105.238 351.15 103.418Z" fill="white"/>
<path d="M337.967 108.602V103.534H347.208V108.602H337.967Z" fill="white"/>
</g>
<defs>
<clipPath id="clip0_30_240">
<rect width="380" height="93.5345" fill="white" transform="translate(50 33.0001)"/>
</clipPath>
</defs>
</svg>
